<?xml version="1.0" standalone="no"?>
<!DOCTYPE svg PUBLIC "-//W3C//DTD SVG 20010904//EN"
 "http://www.w3.org/TR/2001/REC-SVG-20010904/DTD/svg10.dtd">
<svg version="1.0" xmlns="http://www.w3.org/2000/svg"
 width="920.000000pt" height="920.000000pt" viewBox="0 0 920.000000 920.000000"
 preserveAspectRatio="xMidYMid meet">

<g transform="translate(0.000000,920.000000) scale(0.100000,-0.100000)"
fill="#000000" stroke="none">
<path d="M4395 9030 c-382 -72 -650 -316 -726 -665 -19 -86 -17 -297 3 -360
21 -65 75 -187 111 -249 54 -93 87 -166 87 -191 0 -14 2 -25 5 -25 3 0 37 9
77 20 102 28 336 54 354 39 20 -17 18 -25 -23 -70 -62 -69 -98 -81 -258 -90
-136 -7 -186 -17 -200 -38 -13 -21 -25 -10 -25 22 0 32 21 72 49 93 11 9 9 12
-15 17 -55 12 -94 47 -149 132 -67 103 -92 119 -185 113 -129 -7 -200 -91
-200 -235 0 -122 33 -173 170 -265 88 -60 160 -131 160 -159 0 -11 -9 -32 -19
-47 -11 -15 -26 -58 -35 -97 -8 -38 -20 -93 -26 -121 -6 -28 -20 -64 -30 -81
-22 -38 -3 -35 -520 -68 -135 -9 -280 -19 -323 -24 l-79 -7 -32 50 c-44 69
-92 115 -146 140 -37 17 -65 21 -150 21 -99 0 -110 -2 -172 -33 -70 -34 -107
-72 -149 -152 -21 -39 -24 -59 -24 -145 0 -91 3 -106 31 -166 56 -117 151
-186 272 -196 95 -8 169 10 234 56 46 34 70 60 121 133 11 17 21 16 177 -6 91
-14 271 -34 400 -46 129 -12 260 -25 290 -28 l55 -7 7 -72 c36 -362 217 -773
468 -1062 49 -58 100 -125 112 -149 l21 -45 -6 -1041 c-6 -900 -16 -1716 -21
-1723 -1 -1 -39 16 -84 38 -191 93 -380 136 -632 146 -232 9 -382 -17 -538
-93 l-92 -46 -78 48 c-186 115 -305 220 -382 337 -21 33 -38 62 -36 64 2 2 32
-1 67 -7 35 -5 163 -10 283 -10 l220 0 -70 42 c-363 218 -647 566 -860 1054
-57 130 -126 315 -244 651 l-32 93 -27 -19 c-45 -33 -175 -173 -223 -241 -188
-266 -299 -709 -258 -1027 61 -463 163 -741 388 -1057 60 -85 205 -237 261
-276 30 -21 33 -21 27 -4 -3 10 -10 79 -16 153 -10 137 1 397 19 428 6 11 20
-10 54 -78 79 -162 173 -290 392 -534 49 -55 107 -122 129 -148 l38 -47 -16
-107 c-25 -169 -29 -268 -17 -403 45 -515 328 -862 774 -950 63 -13 68 -13 82
6 56 75 70 184 35 278 -30 79 -115 166 -185 191 -73 25 -76 27 -117 81 -88
114 -161 309 -174 459 -7 73 10 185 27 185 24 0 566 -236 809 -353 354 -170
740 -434 906 -620 l51 -58 43 58 c24 32 81 95 127 140 201 198 456 350 948
565 327 143 393 174 543 250 255 130 438 256 584 401 110 110 183 204 343 442
157 232 159 234 166 235 14 0 41 -111 46 -191 3 -48 0 -166 -7 -263 -7 -98
-10 -179 -7 -182 2 -3 38 39 79 93 303 398 482 798 544 1218 25 167 15 484
-19 620 -72 285 -195 503 -394 698 l-60 58 -17 -48 c-10 -26 -29 -79 -43 -118
-215 -598 -454 -1024 -748 -1333 -79 -84 -250 -228 -340 -287 -33 -22 -64 -43
-70 -48 -14 -13 503 -2 543 11 45 15 42 -2 -13 -77 -197 -261 -603 -497 -1064
-617 -73 -19 -136 -32 -139 -29 -3 3 13 44 36 92 152 326 199 734 131 1133
-87 507 -351 1044 -693 1406 l-86 92 0 773 -1 774 288 22 c322 25 426 35 1070
111 l152 18 48 -60 c37 -47 65 -69 117 -96 64 -33 76 -35 160 -35 77 1 100 5
148 27 68 32 140 96 176 157 24 42 27 56 27 146 0 115 -11 146 -81 225 -111
122 -286 162 -429 96 -60 -27 -104 -67 -154 -140 -27 -39 -36 -45 -59 -41 -80
13 -448 39 -702 50 -208 9 -414 24 -540 40 -172 22 -200 27 -200 34 0 4 40 12
89 19 313 42 620 238 740 471 67 131 76 169 76 321 0 115 -4 145 -23 199 -51
142 -175 281 -365 407 -56 38 -105 73 -108 78 -4 5 -10 32 -13 60 -9 67 -59
216 -93 274 -130 227 -326 356 -613 407 -109 19 -190 18 -315 -5z m270 -495
c33 -9 78 -29 100 -44 40 -29 105 -113 105 -136 0 -8 -22 -15 -57 -19 -160
-18 -330 -91 -477 -203 -49 -37 -97 -74 -108 -82 -16 -12 -20 -9 -40 35 -31
68 -31 172 0 235 47 95 166 183 288 213 78 19 118 19 189 1z m207 -245 c16 0
27 -4 24 -9 -3 -5 3 -35 14 -66 20 -58 25 -95 14 -95 -4 0 -32 24 -63 53 -31
28 -75 61 -97 72 -21 11 -41 21 -44 23 -3 2 4 10 15 19 14 10 33 13 64 9 24
-3 57 -6 73 -6z m-162 -70 c53 -15 127 -65 150 -102 21 -36 27 -112 9 -123
-22 -14 -104 20 -196 81 -52 35 -113 69 -136 75 -23 6 -48 13 -56 15 -15 5 22
38 61 53 31 13 124 13 168 1z m894 -77 c100 -72 80 -318 -36 -465 -16 -21 -34
-38 -38 -38 -16 0 -32 81 -25 124 4 22 16 77 26 121 25 108 25 200 -1 243 -11
18 -20 35 -20 39 0 11 70 -6 94 -24z m-120 -23 c19 -48 20 -126 4 -256 -7 -59
-15 -93 -22 -91 -6 2 -22 19 -35 38 -21 31 -23 42 -18 124 5 91 33 225 47 225
4 0 15 -18 24 -40z m-931 -34 c75 -25 237 -111 237 -125 0 -13 -68 -43 -109
-48 -38 -4 -107 14 -251 66 -47 17 -102 31 -122 31 -21 0 -38 3 -38 8 0 20 37
56 74 73 56 25 124 24 209 -5z m1250 -165 c71 -158 -68 -369 -267 -406 l-37
-7 13 28 c20 47 53 95 107 159 75 87 105 154 110 243 l3 73 25 -23 c14 -13 35
-43 46 -67z m-1310 -4 l129 -32 -23 -29 c-27 -34 -92 -65 -135 -66 -17 0 -85
9 -150 21 -75 13 -142 19 -181 16 -35 -3 -63 -2 -63 2 0 3 14 24 32 45 70 85
175 97 391 43z m933 -166 c90 -102 70 -248 -50 -366 -88 -86 -267 -164 -352
-153 l-26 3 0 99 0 99 49 27 c109 59 203 158 269 282 l36 69 25 -17 c15 -9 37
-28 49 -43z m-1007 19 c35 -5 66 -12 69 -15 12 -12 -75 -83 -114 -95 -22 -6
-106 -15 -188 -20 -81 -5 -169 -12 -195 -16 -56 -9 -57 -8 -53 19 15 90 118
135 317 136 55 0 129 -4 164 -9z m-808 -53 c22 -14 47 -48 69 -91 60 -118 54
-214 -26 -393 l-25 -58 -29 32 c-39 43 -45 88 -30 202 16 126 8 263 -14 240
-3 -2 -10 -52 -16 -109 -17 -169 -30 -230 -48 -230 -35 0 -104 44 -129 82 -62
93 -9 262 102 329 42 26 104 24 146 -4z m2266 -90 c5 -48 2 -64 -21 -110 -39
-81 -108 -121 -244 -142 -50 -8 -152 2 -152 15 0 29 64 76 175 130 132 63 185
102 205 151 17 40 30 25 37 -44z m-1686 -216 c-16 -12 -20 -20 -12 -25 17 -11
-23 -62 -72 -90 -23 -14 -100 -39 -171 -55 -106 -26 -163 -45 -228 -79 -15 -7
-8 60 9 95 21 44 86 87 174 114 66 20 253 56 299 58 l25 1 -24 -19z m1649 -35
c0 -14 -25 -57 -57 -101 l-58 -77 -100 4 c-78 4 -122 12 -200 38 -111 36 -128
46 -105 60 33 22 98 31 238 36 160 5 222 16 248 45 23 26 34 24 34 -5z m-1607
-177 c20 -23 54 -86 77 -140 47 -111 89 -174 125 -191 34 -15 21 -28 -29 -28
-126 0 -248 128 -263 275 -3 31 0 74 7 99 15 54 27 51 83 -15z m-153 2 c-12
-44 -26 -66 -62 -97 -41 -36 -82 -53 -229 -99 -85 -25 -126 -43 -149 -65 -18
-17 -34 -30 -36 -30 -11 0 -1 60 15 95 41 91 173 164 381 209 92 20 90 20 80
-13z m280 8 c60 -27 99 -66 180 -179 37 -52 86 -114 109 -137 23 -23 37 -44
32 -47 -5 -4 -30 -9 -55 -12 -88 -12 -165 37 -230 148 -21 36 -106 232 -106
245 0 8 29 1 70 -18z m1062 -15 c70 -22 145 -38 196 -42 l84 -7 -23 -29 c-31
-39 -113 -76 -170 -76 -82 0 -201 46 -329 128 l-55 35 30 13 c56 24 144 17
267 -22z m-533 -44 c18 -14 62 -59 96 -101 49 -60 78 -84 126 -108 76 -38 89
-48 89 -71 0 -27 -80 -35 -153 -15 -76 20 -114 50 -202 161 -40 50 -89 101
-109 113 -20 13 -36 25 -36 27 0 13 51 23 100 21 40 -2 65 -10 89 -27z m245 4
c17 -8 62 -39 100 -69 79 -65 122 -85 180 -85 l41 -1 -35 -29 c-72 -60 -139
-63 -241 -9 -54 29 -189 141 -217 180 -11 16 -10 19 15 25 15 3 33 7 38 10 17
6 88 -6 119 -22z m-496 1 c49 -21 72 -43 158 -157 41 -54 91 -109 111 -122
l36 -25 -27 -11 c-48 -18 -108 -11 -161 18 -39 21 -68 51 -130 134 -44 59 -93
120 -109 137 l-28 29 23 5 c50 9 91 6 127 -8z m-535 -70 c8 -8 22 -45 32 -84
9 -38 25 -77 36 -87 38 -35 -11 -48 -54 -14 -14 11 -39 23 -56 26 -36 7 -36 8
-15 70 8 25 16 59 16 75 1 32 18 38 41 14z m-113 -90 c19 -36 2 -64 -61 -101
-30 -17 -85 -49 -124 -71 -183 -105 -216 -126 -228 -144 -19 -30 -27 -23 -27
26 0 76 37 131 126 189 56 37 276 134 290 129 6 -2 17 -15 24 -28z m91 -124
c21 -22 29 -39 29 -66 l0 -36 -62 3 -63 3 -3 63 -3 62 36 0 c27 0 44 -8 66
-29z m-167 -104 c0 -66 -38 -108 -169 -188 -60 -37 -127 -86 -150 -108 -49
-48 -55 -43 -55 42 0 93 48 141 237 235 56 28 104 56 108 62 15 24 30 1 29
-43z m-24 -190 c0 -26 -10 -63 -26 -95 -33 -67 -130 -156 -193 -179 -43 -15
-50 -21 -56 -51 -7 -38 -45 -82 -71 -82 -14 0 -16 9 -12 69 9 118 50 170 231
291 59 39 107 76 107 81 0 5 5 9 10 9 6 0 10 -19 10 -43z m-16 -244 c0 -86
-19 -125 -117 -234 -72 -80 -96 -114 -117 -174 l-11 -29 -21 33 c-13 19 -23
56 -26 87 -7 82 27 141 148 260 54 54 104 108 111 121 20 37 33 11 33 -64z
m205 -94 l31 -11 0 -219 c0 -120 -2 -219 -5 -219 -12 0 -77 111 -95 165 -19
53 -70 264 -70 287 0 12 101 10 139 -3z m-170 -144 c1 -69 -15 -110 -83 -212
-53 -80 -81 -142 -91 -196 -7 -36 -8 -37 -26 -21 -27 24 -52 109 -47 159 8 62
46 136 139 268 l84 118 12 -28 c7 -15 12 -55 12 -88z m55 -128 c38 -92 27
-162 -49 -318 -29 -59 -59 -130 -66 -158 -7 -28 -15 -51 -19 -51 -14 0 -60 87
-65 124 -10 64 11 132 79 256 35 64 69 132 75 153 14 42 25 40 45 -6z m115
-266 c12 -59 2 -118 -43 -255 -20 -60 -39 -126 -41 -145 -5 -35 -13 -83 -14
-89 -1 -2 -17 15 -36 38 -63 76 -69 160 -19 301 14 41 40 116 57 167 l32 94
27 -33 c15 -17 31 -53 37 -78z m6 -452 c0 -87 -3 -159 -7 -159 -4 0 -15 15
-25 33 -21 39 -23 143 -4 240 22 113 36 71 36 -114z m995 -714 c73 -38 95
-165 60 -335 -19 -93 -55 -200 -67 -200 -19 0 -43 26 -57 60 -21 53 -20 116 4
283 15 100 18 148 11 173 -11 40 1 44 49 19z m173 -185 c75 -88 75 -197 2
-420 -26 -80 -51 -149 -55 -153 -13 -15 -60 58 -69 109 -11 60 -3 113 44 274
26 90 35 140 33 178 -2 28 0 52 4 52 3 0 22 -18 41 -40z m145 -226 c79 -96 62
-224 -56 -428 -32 -54 -62 -99 -66 -100 -5 0 -18 17 -30 39 -31 61 -26 125 19
226 59 134 85 211 85 257 0 23 4 42 9 42 5 0 23 -16 39 -36z m-359 -190 c150
-164 278 -505 322 -859 18 -144 15 -418 -5 -540 -31 -185 -94 -340 -183 -450
-47 -58 -143 -135 -169 -135 -9 0 -12 78 -13 343 -1 188 -3 385 -6 437 -10
210 -16 1260 -7 1260 6 0 33 -25 61 -56z m498 -68 c9 -18 16 -54 16 -93 0 -51
-7 -76 -37 -138 -36 -76 -155 -264 -168 -265 -3 0 -14 23 -23 51 -26 76 -15
121 64 272 40 78 74 157 81 192 l12 59 19 -25 c11 -13 27 -37 36 -53z m79
-202 c56 -95 28 -198 -99 -366 -36 -47 -77 -103 -91 -124 l-25 -37 -12 29 c-6
16 -12 56 -12 89 0 70 14 103 109 242 41 60 70 115 81 153 9 33 18 60 19 60 2
0 15 -21 30 -46z m85 -246 c18 -33 5 -160 -21 -211 -12 -23 -68 -89 -124 -147
-57 -58 -109 -116 -116 -130 -13 -23 -14 -24 -21 -5 -4 11 -8 43 -8 70 -1 68
38 146 133 265 42 52 84 114 94 137 19 48 44 56 63 21z m54 -333 c-4 -49 -13
-99 -20 -110 -23 -35 -78 -87 -151 -141 -39 -29 -92 -76 -117 -104 l-47 -52 0
66 c0 95 29 145 157 274 57 59 116 127 131 151 24 41 26 42 39 25 11 -15 13
-39 8 -109z m19 -222 c1 -72 -32 -141 -88 -189 -22 -19 -95 -70 -164 -114
l-124 -81 4 60 c6 88 51 138 239 266 54 37 79 61 94 92 25 52 38 41 39 -34z
m-5 -246 c1 -80 -53 -159 -147 -214 -52 -31 -249 -123 -263 -123 -16 0 -9 53
12 97 24 50 63 80 189 148 109 59 162 102 180 146 12 28 15 30 21 13 4 -10 8
-41 8 -67z m-59 -267 c0 -133 -128 -210 -417 -248 -70 -10 -74 -6 -44 44 36
59 89 89 288 163 45 16 99 41 120 55 21 14 41 25 46 25 4 1 7 -17 7 -39z
m-2337 -1 c54 -15 106 -65 139 -134 15 -33 28 -65 28 -72 0 -25 41 -105 66
-128 l27 -25 -48 0 c-87 0 -145 51 -245 216 -49 80 -79 114 -101 114 -16 0
-39 26 -39 46 0 9 124 -3 173 -17z m259 -41 c43 -30 82 -94 118 -193 18 -49
43 -118 56 -153 29 -75 29 -72 4 -72 -65 0 -121 63 -202 223 -33 67 -73 141
-89 164 -35 50 -35 50 -6 56 36 7 90 -4 119 -25z m-477 -2 c28 -12 69 -43 92
-67 41 -43 173 -214 173 -224 0 -3 -19 -5 -42 -5 -64 0 -134 38 -228 125 -108
99 -157 135 -186 135 -31 0 -39 17 -15 30 63 33 143 36 206 6z m720 -79 c52
-57 80 -132 110 -297 14 -74 25 -136 25 -137 0 -10 -40 0 -67 16 -48 30 -81
97 -140 285 -30 94 -57 179 -60 188 -5 17 -2 17 43 3 35 -10 61 -27 89 -58z
m-814 -69 c89 -61 91 -63 60 -66 -23 -2 -66 12 -144 49 -62 29 -114 54 -117
56 -11 9 28 23 67 23 34 0 57 -10 134 -62z m971 39 c20 -12 45 -34 57 -48 30
-38 58 -134 76 -255 9 -60 23 -134 31 -165 8 -31 14 -60 14 -63 0 -11 -41 -6
-70 9 -61 31 -93 111 -130 320 -11 66 -27 144 -34 173 -13 47 -13 52 2 52 10
0 34 -10 54 -23z m1598 -84 c0 -106 -156 -192 -346 -193 -77 0 -184 18 -184
31 0 4 16 23 35 42 42 41 97 58 278 87 70 11 144 29 165 39 50 25 52 25 52 -6z
m-1402 -57 c78 -41 110 -108 152 -316 17 -85 38 -169 46 -188 8 -19 14 -36 14
-38 0 -12 -91 33 -118 59 -67 64 -96 152 -117 351 -8 76 -15 140 -15 142 0 7
10 4 38 -10z m246 -169 c40 -42 61 -76 95 -161 55 -134 91 -191 138 -218 l37
-22 -35 -9 c-58 -15 -131 -4 -171 26 -68 52 -125 202 -143 375 -5 55 -4 62 11
62 10 0 41 -24 68 -53z m785 2 c58 -6 136 -9 173 -6 37 3 68 4 68 1 0 -16 -34
-65 -60 -87 -61 -52 -179 -61 -321 -26 -91 23 -189 63 -189 76 0 14 57 43 102
53 44 9 53 8 227 -11z m-575 -70 c15 -12 38 -43 51 -69 13 -26 43 -64 67 -84
53 -45 168 -104 220 -112 21 -4 41 -10 43 -14 9 -14 -87 -54 -141 -58 -120
-10 -259 109 -335 285 -19 45 -19 48 -3 60 26 19 68 16 98 -8z m361 -69 c100
-44 133 -53 198 -57 l78 -6 -23 -24 c-78 -84 -217 -92 -361 -22 -81 39 -187
124 -187 149 0 14 32 19 105 16 59 -3 89 -11 190 -56z m-2510 -177 c30 -21 55
-42 55 -49 0 -17 -30 -40 -92 -69 -39 -18 -61 -36 -71 -57 -14 -30 -15 -30
-26 -10 -6 11 -11 32 -11 46 0 28 69 176 82 176 4 0 33 -17 63 -37z m148 -114
c25 -7 37 -16 37 -28 0 -37 -58 -97 -153 -159 -73 -48 -103 -74 -123 -108 -14
-24 -30 -42 -34 -39 -17 10 -23 96 -10 138 32 107 120 183 240 206 3 0 22 -4
43 -10z m52 -148 c6 -39 -5 -98 -28 -138 -7 -12 -35 -46 -63 -75 -113 -119
-137 -150 -159 -205 l-24 -58 -17 40 c-26 62 -29 119 -9 173 14 37 45 73 149
174 72 71 134 128 138 128 3 0 9 -17 13 -39z m4 -227 c16 -65 7 -102 -62 -248
-49 -103 -62 -139 -62 -178 0 -56 -10 -60 -50 -18 -80 84 -24 311 113 458 17
18 34 32 40 32 5 0 15 -21 21 -46z m85 -228 c8 -48 5 -68 -26 -220 -14 -67
-19 -120 -16 -167 l5 -67 -36 24 c-20 13 -47 40 -61 61 -22 32 -25 47 -24 122
0 91 27 187 82 296 l24 49 23 -26 c12 -14 26 -47 29 -72z m101 -90 c26 -34 31
-62 53 -277 10 -94 34 -154 72 -178 23 -15 24 -15 16 4 -4 11 -15 61 -23 110
-8 50 -21 116 -28 148 -15 68 -11 73 57 64 51 -7 90 -43 124 -116 39 -82 43
-155 11 -224 -33 -73 -48 -80 -128 -61 -86 20 -136 52 -203 126 -55 62 -56 64
-56 124 0 33 11 103 25 155 13 51 25 109 25 127 0 42 21 42 55 -2z"/>
</g>
</svg>
